<svg xmlns="http://www.w3.org/2000/svg" viewBox="0 0 240 132" shape-rendering="crispEdges" role="img" aria-labelledby="title desc"><title id="title">A little woodland window</title><desc id="desc">Close trees frame a sunny trail, butterfly and perched bird, with flowers and a quiet pond below.</desc>
<defs>
 <g id="fir"><path d="M-1 0h3v36h-3" fill="#698d70"/><path d="M-2-7h4v5h3v5h3v5h3v5h-6v3h9v5h-28v-5h9v-3h-6V8h3V3h3v-5h3z" fill="#83a782"/><path d="M-2-2h2v7h-3v5h-3v5h-5v-2h3V8h3V3h3z" fill="#a2bd8a"/></g>
 <g id="leaves"><path d="M6 0h18v3h9v5h5v10h-4v7h-7v4H9v-3H2v-6h-5V9h4V4h5z" fill="#244f40"/><path d="M6 0h18v3h9v5h3v6h-8v5H13v-3H3v-4H0V8h4V4h2z" fill="#39704d"/><path d="M8 1h14v3h6v4H17v3H5V7h3z" fill="#5a8b52"/><path d="M10 2h9v2h-5v3H8V5h2zm16 8h5v3h-5z" fill="#88ad62"/><path d="M4 19h7v3H4zm19 3h7v2h-7z" fill="#316143"/></g>
 <g id="fern"><path d="M0 0h2v-13H0zM-2-3h2v-3h-4v-3h-3v-3h-4v3h3v3h3v3zm4-2h3v-3h3v-3h3v-3H7v3H4v3H2z" fill="#284f39"/><path d="M-1-9h2v-3h-3v-3h-4v3h3v3zm3 4h2v-3h3v-3H5v2H2z" fill="#80a753"/></g>
 <g id="flower"><path d="M0 0h1v7H0m1-3h3v1H1" fill="#3b6540"/><path d="M-1-4h3v2h2v3H2v2h-3V1h-2v-3h2z" fill="#fff1c8"/><path d="M0-1h1v2H0z" fill="#d69d50"/></g>
 <g id="mushroom"><path d="M0 0h3v6H0z" fill="#f2dba5"/><path d="M-2-6h7v2h3v3h2v3H-7v-3h2v-3h3z" fill="#a55d42"/><path d="M-2-6h7v2H0v2h-5v-2h3z" fill="#d99058"/><path d="M0-4h2v2H0m4 2h2v2H4m-7 0h2v2h-2" fill="#f7dfb0"/></g>
 <g id="grass"><path d="M0 0h2v-3H0v-3h-2v3H0m3 3h2v-4h2v-2H5v2H3z" fill="#85a75b"/></g>
</defs>
<path d="M0 0h240v132H0z" fill="#b9cea0" />
<path d="M79 0h87v40h-12v24H88V40h-9z" fill="#dde1ad" />
<path d="M116 10h16v3h5v5h3v12h-3v5h-5v3h-16v-3h-5v-5h-3V18h3v-5h5z" fill="#f7e5ab" />
<path d="M0 52h22v-9h30v7h23v-5h24v12h28v5h22v-9h26v-9h33v6h32v82H0z" fill="#9bb789" />
<use href="#fir" transform="translate(48 32) scale(1)"/>
<use href="#fir" transform="translate(73 39) scale(1)"/>
<use href="#fir" transform="translate(161 35) scale(1)"/>
<use href="#fir" transform="translate(189 27) scale(1)"/>
<path d="M51 17h3v63h-3m13-52h3v52h-3m102-64h4v64h-4m16-58h3v58h-3" fill="#87a782" />
<path d="M0 81h26v-7h29v7h28v-4h31v7h29v-6h28v-7h35v7h34v54H0z" fill="#72965f" />
<path d="M0 105h31v-9h31v8h29v-8h31v8h34v-9h38v8h46v29H0z" fill="#4c764c" />
<path d="M125 68h5v9h-12v9h-8v7h19v8h12v12h-16v19H76v-8h20v-13h21v-8H99V89h9v-9h13v-5h4z" fill="#a59564" />
<path d="M126 68h3v8h-12v11h-9v8h18v8h10v8h-17v21H84v-6h19v-12h19v-14h-19V90h9v-8h12v-6h2z" fill="#dcc58b" />
<path d="M133 48h4v17h-4v10h-5V63h5z" fill="#e4e5b0" opacity=".55"/>
<path d="M160 83h30v5h24v8h26v36h-94v-13h7v-17h7z" fill="#3a6755" />
<path d="M165 87h24v6h23v9h28v30h-83v-14h5v-16h3z" fill="#79a697" />
<path d="M169 92h16v2h-16m-2 15h25v2h-25m31-6h14v2h-14m-22 14h21v2h-21" fill="#c2d5af" />
<path d="M30 4h10v88h-2v15h6v8h-25v-5h7v-15h-2V39h6z" fill="#294b39" />
<path d="M35 17h3v73h-3z" fill="#928253" />
<path d="M30 51h-10v-4h-7v-17h3v14h8v3h6z" fill="#294b39" />
<path d="M203 0h10v88h-2v15h6v8h-25v-5h7v-15h-2V35h6z" fill="#294b39" />
<path d="M208 13h3v73h-3z" fill="#928253" />
<path d="M203 47h-10v-4h-7v-17h3v14h8v3h6z" fill="#294b39" />
<use href="#leaves" transform="translate(-16 -9) scale(1.4)"/>
<use href="#leaves" transform="translate(17 -18) scale(1.5)"/>
<use href="#leaves" transform="translate(49 -22) scale(1.2)"/>
<use href="#leaves" transform="translate(-13 18) scale(1.3)"/>
<use href="#leaves" transform="translate(8 5) scale(1.15)"/>
<use href="#leaves" transform="translate(184 -19) scale(1.5)"/>
<use href="#leaves" transform="translate(217 -10) scale(1.4)"/>
<use href="#leaves" transform="translate(161 -27) scale(1.2)"/>
<use href="#leaves" transform="translate(213 18) scale(1.15)"/>
<use href="#leaves" transform="translate(194 5) scale(1.1)"/>
<path d="M205 60h-17v-4h-16v-4h-7v3h10v4h12v4h18z" fill="#294b39" />
<path d="M177 42h5v-4h7v3h3v8h-3v4h-10v-3h-5v-4h-5v-3h8z" fill="#25473b" />
<path d="M181 43h8v7h-3v2h-6v-3h-2v-4h3z" fill="#e1a15e" />
<path d="M178 43h5v5h-6v-2h-3v-2h4z" fill="#7c9971" />
<path d="M186 40h2v2h-2" fill="#fff0c6" />
<path d="M192 42h3v2h-3m-13 12h2v3h-2m5-3h2v3h-2" fill="#e4bd70" />
<path d="M86 58h4v2h2v6h-3v3h-4v-3h-2v-6h3m11-2h4v2h3v6h-2v3h-4v-3h-3v-6h2" fill="#db9c4b" />
<path d="M87 60h3v4h-3m11-4h3v4h-3" fill="#ffe2a0" />
<path d="M92 60h3v11h-3m-2-14h2v3h-2m5-3h2v3h-2" fill="#35513a" />
<use href="#mushroom" transform="translate(52 86) scale(0.8)"/>
<use href="#mushroom" transform="translate(62 91) scale(0.8)"/>
<use href="#fern" transform="translate(20 122) scale(1)"/>
<use href="#fern" transform="translate(39 111) scale(1)"/>
<use href="#fern" transform="translate(220 100) scale(1)"/>
<use href="#fern" transform="translate(200 128) scale(1)"/>
<use href="#flower" transform="translate(70 86) scale(1)"/>
<use href="#flower" transform="translate(148 77) scale(1)"/>
<use href="#flower" transform="translate(158 83) scale(1)"/>
<use href="#flower" transform="translate(44 120) scale(1)"/>
<use href="#flower" transform="translate(219 118) scale(1)"/>
<use href="#grass" transform="translate(10 97) scale(1)"/>
<use href="#grass" transform="translate(73 106) scale(1)"/>
<use href="#grass" transform="translate(146 103) scale(1)"/>
<use href="#grass" transform="translate(192 79) scale(1)"/>
<use href="#grass" transform="translate(229 126) scale(1)"/>
<path d="M109 47h2v2h-2m36 12h2v2h-2m-14-15h2v2h-2" fill="#fff0c6" />
</svg>
